<svg width="114" height="40" viewBox="0 0 114 40" fill="none" xmlns="http://www.w3.org/2000/svg">
<g clip-path="url(#clip0_1503_282)">
<path d="M42.4569 19.507C42.5735 19.3253 42.5216 19.1306 42.5216 18.9489C42.5216 16.47 42.5216 14.004 42.5087 11.5251C42.5087 11.1487 42.6253 11.0579 42.9751 11.0709C43.8043 11.0968 44.6205 11.0839 45.4497 11.0709C45.6959 11.0709 45.7865 11.1358 45.7865 11.3953C45.7736 15.8081 45.7736 20.2208 45.7865 24.6335C45.7865 24.8931 45.6829 24.958 45.4497 24.958C44.7242 24.945 43.9986 24.945 43.2601 24.958C42.9621 24.9709 42.8326 24.7763 42.6901 24.5816C40.6819 21.9729 38.6737 19.3512 36.6526 16.7425C36.5748 16.6387 36.523 16.47 36.3027 16.431C36.3027 16.7166 36.3027 16.9761 36.3027 17.2487C36.3027 19.6367 36.2898 22.0378 36.3157 24.4258C36.3157 24.8152 36.225 24.9709 35.8104 24.945C35.046 24.906 34.2946 24.919 33.5302 24.945C33.1415 24.958 33.0508 24.8282 33.0508 24.4518C33.0637 20.5842 33.0637 16.7166 33.0637 12.8619C33.0637 12.3817 33.0767 11.8885 33.0637 11.4083C33.0508 11.1487 33.1156 11.0319 33.4006 11.0449C34.1391 11.0579 34.8905 11.0579 35.629 11.0449C35.8752 11.0449 35.9918 11.1747 36.1343 11.3434C38.1555 13.9781 40.1766 16.5998 42.1977 19.2214C42.2496 19.3512 42.3014 19.481 42.4569 19.507Z" fill="white"/>
<path d="M104.84 17.3653C105.695 16.2492 106.55 15.146 107.405 14.0298C108.092 13.1473 108.779 12.2647 109.439 11.3822C109.608 11.1486 109.802 11.0707 110.087 11.0707C111.163 11.0837 112.251 11.0837 113.443 11.0837C112.963 11.7066 112.536 12.2517 112.108 12.8098C111.033 14.1856 109.958 15.5613 108.856 16.9111C108.623 17.1966 108.662 17.3783 108.856 17.6508C110.502 19.9351 112.134 22.2193 113.767 24.5035C113.857 24.6333 113.987 24.7371 114 24.9708C112.795 24.9708 111.616 24.9708 110.424 24.9708C110.204 24.9708 110.139 24.7761 110.035 24.6333C108.921 23.0629 107.807 21.5055 106.706 19.9221C106.511 19.6495 106.382 19.5846 106.213 19.8961C106.2 19.9091 106.2 19.9221 106.187 19.9351C105.708 20.61 104.957 21.1421 104.775 21.9208C104.594 22.6995 104.697 23.5561 104.749 24.3867C104.775 24.8669 104.633 24.9967 104.166 24.9708C103.402 24.9318 102.65 24.9448 101.886 24.9708C101.601 24.9708 101.484 24.9059 101.484 24.5944C101.497 20.1946 101.484 15.7949 101.484 11.3952C101.484 11.1356 101.575 11.0577 101.821 11.0707C102.663 11.0837 103.506 11.0967 104.348 11.0707C104.723 11.0577 104.762 11.2135 104.749 11.5249C104.736 13.3679 104.749 15.2109 104.749 17.0538C104.749 17.1447 104.749 17.2355 104.749 17.3264C104.775 17.3394 104.801 17.3523 104.84 17.3653Z" fill="white"/>
<path d="M90.2525 18.0148C90.2525 15.8604 90.2654 13.7189 90.2395 11.5645C90.2395 11.2141 90.2913 11.0713 90.7059 11.0713C93.6858 11.0843 96.6657 11.0843 99.6456 11.0713C99.9824 11.0713 100.086 11.1621 100.073 11.4996C100.047 12.1615 100.047 12.8234 100.073 13.4853C100.086 13.8747 99.9436 13.9396 99.5938 13.9396C97.7281 13.9266 95.8754 13.9396 94.0097 13.9266C93.6081 13.9266 93.4267 14.0044 93.4656 14.4587C93.5174 14.9908 93.5044 15.5229 93.4656 16.0551C93.4397 16.4704 93.5433 16.6131 93.9838 16.6002C95.5515 16.5742 97.1192 16.6002 98.6868 16.5742C99.0237 16.5742 99.1273 16.6521 99.1144 16.9895C99.0885 17.6125 99.0885 18.2484 99.1144 18.8844C99.1273 19.1959 99.0107 19.2608 98.7257 19.2608C97.1192 19.2478 95.5256 19.2608 93.919 19.2478C93.5563 19.2478 93.4397 19.3386 93.4656 19.702C93.4915 20.325 93.4915 20.961 93.4656 21.5969C93.4526 21.9733 93.5563 22.0901 93.9449 22.0901C95.8365 22.0641 97.7281 22.0901 99.6197 22.0641C100.047 22.0641 100.19 22.155 100.164 22.5963C100.125 23.2452 100.138 23.8941 100.164 24.5301C100.177 24.8675 100.073 24.9714 99.7233 24.9714C96.7175 24.9584 93.6988 24.9584 90.693 24.9714C90.3302 24.9714 90.2266 24.8805 90.2266 24.5171C90.2654 22.3497 90.2525 20.1823 90.2525 18.0148Z" fill="white"/>
<path d="M54.6079 10.7335C53.9213 10.7205 53.2476 10.8244 52.5868 10.9931C48.104 12.1222 45.7849 16.8854 47.6894 21.0126C49.1016 24.0625 52.4184 25.7238 55.9554 25.1657C60.3475 24.4649 63.0682 20.1689 61.8244 15.912C60.9434 12.888 57.9506 10.7465 54.6079 10.7335ZM54.6079 22.3234C52.1463 22.3234 50.2677 20.4285 50.2677 17.9366C50.2806 15.5226 52.1593 13.6926 54.6339 13.7056C57.0955 13.7186 58.9223 15.5745 58.9093 18.0664C58.8964 20.4545 57.0178 22.3234 54.6079 22.3234Z" fill="white"/>
<path d="M87.8295 14.0563C86.4691 12.0447 84.448 11.201 82.1029 11.1102C80.1855 11.0323 78.255 11.0972 76.3246 11.0713C75.9618 11.0713 75.8711 11.1621 75.8711 11.5255C75.884 13.6929 75.8841 15.8604 75.8841 18.0278C75.8841 20.1952 75.8841 22.3626 75.8841 24.5301C75.8841 24.7377 75.8063 24.9843 76.195 24.9843C78.3975 24.9324 80.6 25.14 82.7896 24.8805C89.2547 24.1018 90.1745 17.5346 87.8295 14.0563ZM85.6529 18.8325C85.4067 20.7014 84.1241 21.8694 82.1807 22.0382C81.2478 22.116 80.3021 22.0641 79.3692 22.0901C79.0583 22.1031 79.0971 21.9084 79.0971 21.7137C79.0971 20.4678 79.0971 19.2218 79.0971 17.9759C79.0971 16.7689 79.1101 15.5489 79.0842 14.3419C79.0842 14.0174 79.1619 13.9266 79.4858 13.9266C80.2632 13.9525 81.0405 13.9136 81.8179 13.9525C84.7589 14.1083 86.0027 16.2108 85.6529 18.8325Z" fill="white"/>
<path d="M72.153 20.2082C71.9716 19.8967 71.9975 19.7669 72.3214 19.5852C74.0705 18.6378 74.9256 16.678 74.4592 14.7183C73.9539 12.5379 72.1659 11.1102 69.8598 11.0843C67.8646 11.0583 65.8823 11.0843 63.8871 11.0713C63.5243 11.0713 63.4336 11.1621 63.4336 11.5255C63.4465 13.68 63.4466 15.8215 63.4466 17.9759C63.4466 20.1433 63.4595 22.3107 63.4336 24.4782C63.4336 24.8416 63.4984 24.9973 63.913 24.9714C64.6774 24.9324 65.4288 24.9324 66.1932 24.9714C66.6208 24.9843 66.6985 24.8416 66.6856 24.4522C66.6596 23.2063 66.6856 21.9603 66.6726 20.7144C66.6726 20.4029 66.7503 20.2861 67.0742 20.2991C67.4759 20.325 67.8905 20.325 68.2921 20.2991C68.629 20.2731 68.8103 20.3899 68.9658 20.7014C69.6266 21.9993 70.3132 23.2712 70.974 24.569C71.1165 24.8416 71.272 24.9714 71.5959 24.9584C72.5287 24.9324 73.4745 24.9324 74.4073 24.9584C74.8608 24.9714 74.8478 24.8416 74.6535 24.5171C73.8114 23.0895 72.9951 21.6488 72.153 20.2082ZM69.6914 17.5736C68.7715 17.6514 67.8516 17.5995 66.9317 17.6125C66.6985 17.6125 66.6726 17.4827 66.6726 17.301C66.6726 16.7948 66.6726 16.3017 66.6726 15.7955C66.6726 15.2893 66.6856 14.7961 66.6726 14.29C66.6726 14.0434 66.7503 13.9396 67.0095 13.9525C67.8516 13.9655 68.6937 13.9396 69.5359 13.9655C70.5335 13.9915 71.2979 14.7572 71.3368 15.7176C71.3497 16.6521 70.676 17.4957 69.6914 17.5736Z" fill="white"/>
<path d="M1.8125 2.90723V14.0039L17.4245 29.4225V18.3258L1.8125 2.90723Z" fill="#52C7FE"/>
<path d="M17.4258 2.90723V18.3258L25.1994 26.0091V2.90723H17.4258Z" fill="#8B78FF"/>
<path d="M17.4258 29.4229L25.1994 37.1062V26.0095L17.4258 18.3262V29.4229Z" fill="#6C62FF"/>
<path d="M25.9768 40.0004C25.7177 40.0004 25.4586 39.8966 25.2513 39.7019L0.310944 15.0685C0.116604 14.8739 0 14.6013 0 14.3288V1.03868C0 0.61039 0.246164 0.246989 0.634845 0.0782675C1.02353 -0.0904541 1.46403 0.00039601 1.76202 0.298903L15.612 13.9783V2.12888C15.612 1.55783 16.0784 1.0906 16.6485 1.0906H25.9768C26.5469 1.0906 27.0133 1.55783 27.0133 2.12888V38.9621C27.0133 39.3904 26.7671 39.7538 26.3785 39.9225C26.2489 39.9744 26.1064 40.0004 25.9768 40.0004ZM1.03648 0.519539C0.971701 0.519539 0.906921 0.532518 0.842141 0.558475C0.634845 0.649325 0.518241 0.831025 0.518241 1.03868V14.3288C0.518241 14.4715 0.570065 14.6013 0.673713 14.6922L25.614 39.3255C25.7695 39.4813 25.9768 39.5202 26.1841 39.4293C26.3785 39.3515 26.508 39.1698 26.508 38.9491V2.12888C26.508 1.84335 26.2748 1.60974 25.9898 1.60974H16.6614C16.3764 1.60974 16.1432 1.84335 16.1432 2.12888V15.2243L1.39925 0.675282C1.2956 0.571454 1.179 0.519539 1.03648 0.519539Z" fill="white"/>
<path d="M5.4425 39.7021C8.34044 39.7021 10.6897 37.3488 10.6897 34.4458C10.6897 31.5428 8.34044 29.1895 5.4425 29.1895C2.54456 29.1895 0.195312 31.5428 0.195312 34.4458C0.195312 37.3488 2.54456 39.7021 5.4425 39.7021Z" fill="#8966FF"/>
</g>
<defs>
<clipPath id="clip0_1503_282">
<rect width="114" height="40" fill="white"/>
</clipPath>
</defs>
</svg>
